<svg width="292" height="60" viewBox="0 0 292 60" fill="none" xmlns="http://www.w3.org/2000/svg">
<path d="M106.247 17.3012C106.247 16.8853 106.435 16.6774 106.802 16.6774H108.66C108.789 16.6803 108.915 16.7161 109.027 16.7813C109.172 16.8704 109.284 17.0042 109.346 17.1626L117.671 33.6667L118.204 35.2679L118.038 33.6529L117.906 17.3012C117.899 17.1394 117.948 16.9801 118.045 16.8507C118.098 16.7905 118.165 16.7435 118.24 16.7135C118.314 16.6834 118.395 16.6711 118.475 16.6774H120.36C120.43 16.6747 120.5 16.6862 120.566 16.7112C120.631 16.7362 120.691 16.7742 120.741 16.8229C120.798 16.8841 120.84 16.9565 120.867 17.0354C120.893 17.1142 120.902 17.1977 120.894 17.2804V40.0369C120.894 40.4458 120.7 40.6469 120.305 40.6469H118.523C118.388 40.6427 118.256 40.6096 118.135 40.5498C117.987 40.4682 117.873 40.3351 117.816 40.1755L109.498 23.9071L108.909 22.2573L109.096 23.9209L109.193 40.023C109.193 40.4389 109.02 40.6469 108.66 40.6469H106.774C106.407 40.6469 106.22 40.4389 106.22 40.023L106.247 17.3012Z" fill="white"/>
<path d="M141.037 40.0091C141.077 40.0787 141.098 40.1576 141.098 40.2379C141.098 40.3182 141.077 40.397 141.037 40.4666C140.995 40.5258 140.938 40.5734 140.873 40.6049C140.807 40.6364 140.735 40.6509 140.662 40.6468H138.465C138.336 40.6448 138.209 40.609 138.098 40.5429C138.029 40.501 137.97 40.4444 137.926 40.3774C137.882 40.3103 137.853 40.2343 137.841 40.1547L136.718 35.7393H129.454L128.345 40.1547C128.335 40.2341 128.308 40.3103 128.265 40.3775C128.222 40.4448 128.164 40.5013 128.095 40.5429C127.984 40.6081 127.857 40.6439 127.728 40.6468H125.558C125.487 40.6517 125.415 40.6376 125.35 40.6059C125.286 40.5743 125.231 40.5262 125.191 40.4666C125.15 40.3982 125.126 40.3213 125.12 40.2419C125.114 40.1625 125.126 40.0828 125.156 40.0091L131.533 17.1833C131.565 17.0252 131.651 16.883 131.776 16.7813C131.878 16.7003 132.006 16.6586 132.136 16.6635H134.001C134.133 16.6609 134.262 16.7024 134.368 16.7813C134.499 16.8808 134.59 17.0232 134.625 17.1833L141.037 40.0091ZM130.182 32.9112H136.011L133.356 22.3751L133.107 20.5937L132.85 22.3751L130.182 32.9112Z" fill="white"/>
<path d="M151.386 17.2805C151.374 17.2056 151.378 17.129 151.399 17.056C151.419 16.9829 151.456 16.9153 151.505 16.8578C151.555 16.8004 151.616 16.7545 151.686 16.7233C151.755 16.6921 151.83 16.6765 151.906 16.6775H153.923C154.009 16.666 154.096 16.6759 154.177 16.7061C154.258 16.7363 154.33 16.786 154.387 16.8508C154.479 17.0005 154.522 17.1746 154.512 17.3498V35.1155C154.525 35.952 154.367 36.7822 154.048 37.5555C153.76 38.2536 153.333 38.8858 152.793 39.4131C152.256 39.9273 151.622 40.3301 150.928 40.5984C150.194 40.8793 149.413 41.0204 148.627 41.0143C147.767 41.016 146.914 40.8488 146.118 40.5222C145.369 40.2279 144.694 39.771 144.142 39.1844C144.023 39.0594 143.931 38.9106 143.872 38.7477C143.84 38.66 143.835 38.5645 143.859 38.474C143.882 38.3835 143.933 38.3025 144.004 38.2417L145.099 36.9663C145.153 36.8969 145.224 36.8431 145.306 36.8102C145.388 36.7774 145.476 36.7667 145.563 36.7791C145.721 36.8204 145.863 36.9072 145.972 37.0287C146.277 37.3072 146.62 37.5406 146.991 37.7218C147.453 37.9455 147.961 38.0571 148.475 38.0476C148.88 38.0509 149.282 37.9682 149.653 37.805C150.006 37.6424 150.321 37.406 150.575 37.1118C150.847 36.8029 151.055 36.4422 151.185 36.0513C151.336 35.605 151.409 35.136 151.4 34.665L151.386 17.2805Z" fill="white"/>
<path d="M159.136 24.4063C159.128 23.342 159.285 22.2829 159.601 21.2663C159.892 20.319 160.362 19.4365 160.987 18.667C161.621 17.9149 162.414 17.3134 163.309 16.9063C164.324 16.4762 165.416 16.2546 166.518 16.2546C167.621 16.2546 168.712 16.4762 169.728 16.9063C170.625 17.3142 171.422 17.9127 172.064 18.6601C172.707 19.4207 173.193 20.302 173.492 21.2525C173.815 22.2675 173.977 23.3272 173.97 24.3925V32.9461C173.976 34.0136 173.815 35.0755 173.492 36.093C173.194 37.0404 172.711 37.9192 172.071 38.6785C171.431 39.4289 170.634 40.0279 169.735 40.4322C168.726 40.8845 167.63 41.107 166.525 41.0838C165.425 41.108 164.333 40.8854 163.33 40.4322C162.439 40.0239 161.649 39.4253 161.015 38.6785C160.375 37.9192 159.892 37.0404 159.594 36.093C159.271 35.0755 159.109 34.0136 159.115 32.9461L159.136 24.4063ZM162.242 33.1471C162.239 33.8087 162.332 34.4671 162.519 35.1018C162.688 35.6733 162.968 36.2058 163.344 36.6684C163.709 37.1137 164.168 37.4734 164.688 37.722C165.276 37.9779 165.909 38.1099 166.55 38.1099C167.19 38.1099 167.824 37.9779 168.411 37.722C168.944 37.4765 169.418 37.1168 169.797 36.6684C170.173 36.2078 170.456 35.6779 170.629 35.1087C170.815 34.4788 170.909 33.8249 170.906 33.1679V24.1568C170.911 23.5055 170.812 22.8575 170.615 22.2367C170.442 21.6633 170.16 21.129 169.783 20.6633C169.412 20.2106 168.942 19.848 168.411 19.6027C167.828 19.3285 167.19 19.1932 166.546 19.2076C165.908 19.1971 165.275 19.3297 164.695 19.5958C164.172 19.8445 163.71 20.2068 163.344 20.6564C162.966 21.1231 162.686 21.6603 162.519 22.2367C162.333 22.8622 162.24 23.5114 162.242 24.1638V33.1471Z" fill="white"/>
<path d="M176.847 17.2458C176.835 17.0921 176.885 16.94 176.985 16.823C177.033 16.775 177.091 16.7374 177.154 16.7123C177.217 16.6873 177.285 16.6754 177.353 16.6775H190.828C190.892 16.6762 190.957 16.6885 191.016 16.7136C191.076 16.7387 191.13 16.7759 191.174 16.823C191.226 16.8798 191.266 16.9466 191.291 17.0193C191.316 17.092 191.326 17.1691 191.32 17.2458V19.1174C191.327 19.192 191.318 19.2673 191.292 19.338C191.267 19.4087 191.227 19.473 191.174 19.5263C191.079 19.61 190.955 19.6545 190.828 19.6511H185.636V40.0716C185.649 40.2265 185.602 40.3805 185.504 40.5014C185.459 40.5497 185.404 40.5878 185.343 40.6129C185.282 40.638 185.217 40.6496 185.151 40.6469H183.03C182.962 40.6502 182.894 40.639 182.83 40.6139C182.767 40.5888 182.71 40.5504 182.662 40.5014C182.562 40.3815 182.512 40.2274 182.524 40.0716V19.6511H177.353C177.219 19.6558 177.088 19.6114 176.985 19.5263C176.935 19.4714 176.897 19.4067 176.873 19.3363C176.849 19.2659 176.84 19.1914 176.847 19.1174V17.2458Z" fill="white"/>
<path d="M202.32 17.2459C202.314 17.1692 202.324 17.0921 202.349 17.0194C202.374 16.9466 202.414 16.8798 202.466 16.8231C202.512 16.7749 202.568 16.7371 202.631 16.712C202.693 16.6869 202.759 16.6752 202.826 16.6775H216.301C216.366 16.6763 216.43 16.6886 216.49 16.7137C216.55 16.7387 216.603 16.776 216.648 16.8231C216.7 16.8798 216.739 16.9466 216.765 17.0194C216.79 17.0921 216.799 17.1692 216.793 17.2459V19.1174C216.8 19.1921 216.791 19.2674 216.766 19.3381C216.741 19.4087 216.7 19.473 216.648 19.5264C216.552 19.6101 216.428 19.6546 216.301 19.6512H211.109V40.0717C211.123 40.2266 211.075 40.3805 210.978 40.5015C210.933 40.5498 210.878 40.5878 210.817 40.6129C210.756 40.6381 210.69 40.6497 210.624 40.647H208.475C208.407 40.6503 208.339 40.6391 208.276 40.614C208.213 40.5889 208.155 40.5505 208.108 40.5015C208.01 40.3805 207.963 40.2266 207.976 40.0717V19.6512H202.798C202.728 19.657 202.657 19.647 202.591 19.6218C202.525 19.5966 202.466 19.557 202.417 19.5057C202.369 19.4545 202.332 19.393 202.311 19.3258C202.289 19.2586 202.283 19.1874 202.292 19.1174L202.32 17.2459Z" fill="white"/>
<path d="M233.568 40.0091C233.608 40.0787 233.629 40.1576 233.629 40.2379C233.629 40.3182 233.608 40.397 233.568 40.4666C233.526 40.5258 233.469 40.5734 233.404 40.6049C233.338 40.6364 233.266 40.6509 233.194 40.6468H231.024C230.895 40.6448 230.768 40.609 230.657 40.5429C230.588 40.501 230.529 40.4444 230.485 40.3774C230.441 40.3103 230.412 40.2343 230.4 40.1547L229.27 35.7393H221.985L220.876 40.1547C220.867 40.2341 220.839 40.3103 220.796 40.3775C220.753 40.4448 220.695 40.5013 220.627 40.5429C220.515 40.6081 220.388 40.6439 220.259 40.6468H218.09C218.018 40.6517 217.946 40.6376 217.882 40.6059C217.817 40.5743 217.762 40.5262 217.722 40.4666C217.681 40.3982 217.657 40.3213 217.651 40.2419C217.645 40.1625 217.657 40.0828 217.688 40.0091L224.092 17.1833C224.124 17.0252 224.21 16.883 224.335 16.7813C224.437 16.7003 224.565 16.6586 224.695 16.6635H226.56C226.692 16.6609 226.821 16.7024 226.927 16.7813C227.058 16.8808 227.149 17.0232 227.184 17.1833L233.568 40.0091ZM222.713 32.9112H228.577L225.888 22.3751L225.638 20.5937L225.382 22.3751L222.713 32.9112Z" fill="white"/>
<path d="M237.339 17.4193C237.326 17.2345 237.383 17.0517 237.498 16.9064C237.557 16.8386 237.631 16.7856 237.714 16.7519C237.797 16.7182 237.887 16.7046 237.976 16.7123H240.125C240.555 16.7123 240.763 16.948 240.763 17.4055V20.2959C240.774 20.6108 240.713 20.924 240.583 21.2109C240.467 21.4552 240.296 21.6689 240.083 21.8347C239.879 21.9997 239.643 22.1222 239.39 22.1952C239.123 22.2758 238.845 22.3155 238.565 22.313C238.219 22.313 238.046 22.1744 238.046 21.8971V21.204C238.041 21.147 238.053 21.0899 238.08 21.0395C238.107 20.9891 238.148 20.9475 238.198 20.9198C238.307 20.8632 238.429 20.8346 238.552 20.8366C238.611 20.843 238.672 20.8357 238.728 20.8153C238.785 20.7949 238.836 20.7618 238.877 20.7187C238.947 20.6198 238.982 20.5001 238.974 20.3791C238.984 20.2718 238.957 20.1643 238.898 20.0741C238.862 20.039 238.818 20.0122 238.77 19.9954C238.722 19.9787 238.671 19.9724 238.621 19.9771H237.928C237.779 19.9808 237.635 19.9261 237.526 19.8246C237.465 19.7601 237.419 19.6835 237.39 19.5998C237.362 19.5162 237.351 19.4274 237.359 19.3394L237.339 17.4193Z" fill="white"/>
<path d="M246.654 17.3011C246.654 16.8852 246.835 16.6772 247.209 16.6772H249.205C249.572 16.6772 249.76 16.8852 249.76 17.3011V37.6869H257.613C257.749 37.6812 257.882 37.7256 257.987 37.8117C258.041 37.8661 258.081 37.9316 258.106 38.0034C258.132 38.0753 258.141 38.1518 258.133 38.2276V40.0714C258.139 40.1492 258.129 40.2274 258.104 40.3012C258.079 40.3751 258.04 40.4431 257.987 40.5012C257.938 40.5497 257.88 40.5876 257.815 40.6127C257.751 40.6377 257.682 40.6493 257.613 40.6467H247.216C246.841 40.6467 246.661 40.4388 246.661 40.0229L246.654 17.3011Z" fill="white"/>
<path d="M263.11 17.3011C263.11 16.8852 263.298 16.6772 263.679 16.6772H265.682C266.042 16.6772 266.223 16.8852 266.223 17.3011V40.0229C266.223 40.4388 266.042 40.6467 265.682 40.6467H263.679C263.298 40.6467 263.11 40.4388 263.11 40.0229V17.3011Z" fill="white"/>
<path d="M276.439 24.025L275.836 21.8346L276.037 24.0042L276.169 40.037C276.169 40.4459 276.023 40.647 275.669 40.647H273.701C273.63 40.6556 273.559 40.6446 273.494 40.6152C273.429 40.5859 273.374 40.5393 273.334 40.4806C273.258 40.3405 273.222 40.1823 273.23 40.0231V17.2181C273.233 17.0698 273.284 16.9264 273.375 16.8092C273.42 16.7591 273.476 16.72 273.539 16.6948C273.601 16.6696 273.668 16.6589 273.736 16.6636H276.106C276.165 16.6577 276.224 16.6667 276.279 16.6897C276.333 16.7127 276.381 16.749 276.418 16.7953C276.488 16.9118 276.546 17.0349 276.591 17.1627L282.137 31.823L282.4 33.2094L282.67 31.823L288.216 17.1835C288.258 17.0544 288.316 16.931 288.389 16.8161C288.426 16.7698 288.474 16.7335 288.528 16.7105C288.583 16.6875 288.642 16.6785 288.701 16.6844H291.037C291.104 16.6797 291.171 16.6904 291.234 16.7156C291.296 16.7408 291.352 16.7799 291.397 16.83C291.488 16.9472 291.539 17.0906 291.543 17.239V40.0439C291.543 40.4598 291.411 40.6678 291.092 40.6678H289.117C288.784 40.6678 288.618 40.4668 288.618 40.0578L288.77 24.0458L288.95 21.9247L288.382 24.0458L283.675 36.4326C283.641 36.5784 283.572 36.7138 283.474 36.8276C283.384 36.8997 283.271 36.9366 283.156 36.9316H281.638C281.529 36.9354 281.422 36.8983 281.34 36.8276C281.239 36.7156 281.17 36.5795 281.139 36.4326L276.439 24.025Z" fill="white"/>
<path d="M89.1821 18.0014L86.8115 18.4104C82.2338 19.2126 77.7378 20.4259 73.378 22.0356V9.06655L72.1164 9.63495C69.2398 10.9242 66.5157 12.2759 63.9233 13.6899L63.8332 0.103991L62.4468 0.984318C55.8841 5.16646 49.7684 10.0117 44.1959 15.4436C38.6288 10.2163 32.699 5.38906 26.451 0.998153L25.03 0V14.085C22.2089 12.4977 19.3045 11.049 16.3447 9.75277L15.0832 9.20519L15.1456 21.2662C10.9324 19.8023 6.56428 18.8301 2.128 18.3687L0 18.1539L17.024 39.427L16.9478 23.8517C19.7209 24.9397 22.4206 26.2062 25.03 27.6432V41.1252L25.2103 41.3609C30.2149 48.0984 43.3849 59.0642 43.9256 59.5286L44.494 60L45.0693 59.5286C45.6308 59.0711 58.8078 48.2232 63.7847 41.2223L64.0827 40.7163L63.9995 28.1631C66.3008 26.957 68.8516 25.7579 71.5688 24.6488V39.4963L89.1821 18.0014ZM73.378 23.9487C77.063 22.5576 80.8496 21.4522 84.7042 20.6423L73.378 34.5055V23.9487ZM4.06192 20.4205C7.8263 20.9719 11.5256 21.9008 15.104 23.1932L15.1594 34.2837L4.06192 20.4205ZM62.031 3.38263V14.7297C58.1249 16.9672 54.388 19.4878 50.8503 22.2712C50.0878 21.4395 49.3115 20.6077 48.5074 19.7828C47.5092 18.7431 46.4764 17.7034 45.4159 16.6775C50.5224 11.7231 56.0933 7.27101 62.0518 3.38263H62.031ZM31.8715 29.7227C30.1941 28.5906 28.4958 27.537 26.7768 26.5619V17.2112C30.1154 19.2321 33.3325 21.4471 36.4117 23.8447C34.8544 25.7532 33.348 27.7195 31.8923 29.7435L31.8715 29.7227ZM37.805 24.933C39.5564 26.347 41.2615 27.8212 42.9205 29.3554C41.3216 30.9681 39.7551 32.6663 38.2209 34.4501C36.7999 33.2856 35.164 32.024 33.3688 30.7347C34.792 28.7523 36.2777 26.8253 37.8258 24.9538L37.805 24.933ZM49.4778 23.3734C47.6617 24.8614 45.9034 26.4348 44.2029 28.0938C42.5046 26.5203 40.7371 25.0093 38.9626 23.5606C40.6262 21.6105 42.3614 19.725 44.1682 17.9043C46.0351 19.7297 47.8119 21.5596 49.4986 23.3942L49.4778 23.3734ZM49.2075 35.6909C47.4939 37.0497 45.8512 38.4957 44.286 40.0231C43.4542 39.1567 41.8669 37.5624 39.5933 35.6077C41.1044 33.8563 42.6502 32.1834 44.2306 30.5892C45.9589 32.2389 47.6248 33.9464 49.2283 35.7116L49.2075 35.6909ZM38.4288 36.9801C40.2468 38.5211 41.9712 40.1691 43.5929 41.9154L44.2444 42.6502L44.9376 41.957C46.6642 40.2112 48.4976 38.5745 50.4274 37.0564C51.5504 38.3387 52.6456 39.6557 53.713 40.9935L44.5425 49.665L35.2334 41.0906C36.2939 39.6557 37.3683 38.3179 38.4496 37.0009L38.4288 36.9801ZM45.5129 29.3554C47.1834 27.7334 48.9025 26.2015 50.677 24.7389C52.4977 26.8045 54.189 28.884 55.7509 30.9773L55.2588 31.3101C53.5259 32.4607 51.9801 33.5836 50.6215 34.6303C48.9857 32.7957 47.2897 31.0351 45.5337 29.3484L45.5129 29.3554ZM52.0633 23.6229C55.2391 21.1305 58.5835 18.8607 62.0725 16.83V27.1858C60.3258 28.1354 58.7176 29.085 57.262 30.0069C55.677 27.8674 53.951 25.737 52.0841 23.616L52.0633 23.6229ZM26.7768 3.52127C32.4299 7.57027 37.8111 11.986 42.8858 16.7398C41.9501 17.6825 41.0282 18.6391 40.1132 19.6095C39.1982 20.58 38.3872 21.5296 37.5485 22.5139C34.1138 19.8338 30.5087 17.3795 26.756 15.1664L26.7768 3.52127ZM19.4847 22.9991C18.6183 22.6317 17.7588 22.3059 16.8923 21.9594L16.8646 11.9778C19.6372 13.2394 22.3498 14.6257 25.0023 16.1368V25.5707C23.1862 24.6211 21.3216 23.7616 19.5055 22.9575L19.4847 22.9991ZM30.8387 31.2477C29.4247 33.2948 28.0707 35.3928 26.7768 37.5416V28.6553C28.2532 29.5148 29.6395 30.3743 30.8595 31.2061L30.8387 31.2477ZM44.4663 57.7056C41.9154 55.5568 31.4695 46.6151 26.957 40.7994C28.6345 37.842 30.4182 34.9977 32.3082 32.2666C34.0758 33.5143 35.6701 34.7481 37.0564 35.8919C35.7856 37.4168 34.5309 39.0088 33.2925 40.6677L32.8073 41.3193L44.5356 52.1603L56.1114 41.2153L55.6123 40.5776C54.3877 39.0019 53.1238 37.4723 51.8207 35.9889C53.1238 34.9838 54.5933 33.9094 56.25 32.8142L56.8115 32.4399C58.7105 35.0698 60.4399 37.8179 61.9894 40.6677C57.5185 46.6359 47.0518 55.5291 44.4871 57.664L44.4663 57.7056ZM62.0864 37.2019C60.9496 35.2981 59.6927 33.3896 58.3156 31.4764C59.4732 30.7486 60.7278 30 62.0725 29.2514L62.0864 37.2019ZM63.9787 26.1946L63.9164 15.7972C66.3424 14.4108 68.8863 13.1493 71.5411 11.9085V22.7218C68.8586 23.7962 66.3216 24.9607 63.9995 26.153L63.9787 26.1946Z" fill="#AE8D5E"/>
</svg>
